<!-- Generated by IcoMoon.io -->
<svg version="1.1" xmlns="http://www.w3.org/2000/svg" width="512" height="512" viewBox="0 0 512 512">
<title></title>
<g id="icomoon-ignore">
</g>
<path fill="#000" d="M480 512h-448c-17.664 0-32-14.336-32-32v-448c0-17.664 14.336-32 32-32h384l96 96v384c0 17.664-14.336 32-32 32zM128 432c0 8.848 7.168 16 16 16h224c8.848 0 16-7.152 16-16v-128c0-8.848-7.152-16-16-16h-224c-8.832 0-16 7.152-16 16v128zM352 80c0-8.848-7.152-16-16-16s-16 7.152-16 16v48c0 8.848 7.152 16 16 16s16-7.152 16-16v-48zM448 112l-48-48h-16v112c0 8.848-7.152 16-16 16h-224c-8.832 0-16-7.152-16-16v-112h-48c-8.832 0-16 7.152-16 16v352c0 8.848 7.168 16 16 16h16v-176c0-8.848 7.168-16 16-16h288c8.848 0 16 7.152 16 16v176h16c8.848 0 16-7.152 16-16v-320z"></path>
</svg>
