<!-- Generated by IcoMoon.io -->
<svg version="1.1" xmlns="http://www.w3.org/2000/svg" width="512" height="512" viewBox="0 0 512 512">
<title></title>
<g id="icomoon-ignore">
</g>
<path fill="#000" d="M336 448c8.848 0 16-7.152 16-16v-224c0-8.848-7.152-16-16-16s-16 7.152-16 16v224c0 8.848 7.152 16 16 16zM176 448c8.832 0 16-7.152 16-16v-224c0-8.848-7.168-16-16-16s-16 7.152-16 16v224c0 8.848 7.168 16 16 16zM464 96h-64v-32c0-35.344-28.656-64-64-64h-160c-35.344 0-64 28.656-64 64v32h-64l-48 48c0 8.848 7.168 16 16 16h48v320c0 17.664 14.336 32 32 32h320c17.664 0 32-14.336 32-32v-320h48c8.848 0 16-7.152 16-16l-48-48zM160 64c0-17.664 14.336-32 32-32h128c17.664 0 32 14.336 32 32v32h-192v-32zM416 464c0 8.848-7.152 16-16 16h-288c-8.832 0-16-7.152-16-16v-304h320v304zM256 448c8.848 0 16-7.152 16-16v-224c0-8.848-7.152-16-16-16s-16 7.152-16 16v224c0 8.848 7.152 16 16 16z"></path>
</svg>
